<mxfile host="Electron" agent="Mozilla/5.0 (Windows NT 10.0; Win64; x64) AppleWebKit/537.36 (KHTML, like Gecko) draw.io/24.7.17 Chrome/128.0.6613.36 Electron/32.0.1 Safari/537.36" version="24.7.17">
  <diagram name="Страница — 1" id="91DSni7lKraVOXPUS29s">
    <mxGraphModel dx="2345" dy="1129" grid="1" gridSize="10" guides="1" tooltips="1" connect="1" arrows="1" fold="1" page="1" pageScale="1" pageWidth="827" pageHeight="1169" math="0" shadow="0">
      <root>
        <mxCell id="0" />
        <mxCell id="1" parent="0" />
        <mxCell id="xZeH-LyGdVXV--fjbjvh-1" value="начало" style="ellipse;whiteSpace=wrap;html=1;" vertex="1" parent="1">
          <mxGeometry x="160" y="10" width="80" height="30" as="geometry" />
        </mxCell>
        <mxCell id="xZeH-LyGdVXV--fjbjvh-2" value="" style="endArrow=classic;html=1;rounded=0;" edge="1" parent="1">
          <mxGeometry width="50" height="50" relative="1" as="geometry">
            <mxPoint x="199.5" y="40" as="sourcePoint" />
            <mxPoint x="199.5" y="70" as="targetPoint" />
          </mxGeometry>
        </mxCell>
        <mxCell id="xZeH-LyGdVXV--fjbjvh-3" value="" style="endArrow=none;dashed=1;html=1;rounded=0;" edge="1" parent="1">
          <mxGeometry width="50" height="50" relative="1" as="geometry">
            <mxPoint x="200" y="50" as="sourcePoint" />
            <mxPoint x="250" y="50" as="targetPoint" />
          </mxGeometry>
        </mxCell>
        <mxCell id="xZeH-LyGdVXV--fjbjvh-4" value="" style="strokeWidth=2;html=1;shape=mxgraph.flowchart.annotation_1;align=left;pointerEvents=1;" vertex="1" parent="1">
          <mxGeometry x="250" y="20" width="10" height="60" as="geometry" />
        </mxCell>
        <mxCell id="xZeH-LyGdVXV--fjbjvh-5" value="&lt;div&gt;#include&amp;lt;iostream&amp;gt;&lt;/div&gt;&lt;div&gt;#include&amp;lt;clocale&amp;gt;&lt;/div&gt;&lt;div&gt;using namespace std;&lt;/div&gt;&lt;div&gt;const int n = 7; int r; int j&lt;br&gt;&lt;/div&gt;" style="text;html=1;align=center;verticalAlign=middle;resizable=0;points=[];autosize=1;strokeColor=none;fillColor=none;" vertex="1" parent="1">
          <mxGeometry x="235" y="15" width="150" height="70" as="geometry" />
        </mxCell>
        <mxCell id="xZeH-LyGdVXV--fjbjvh-6" value="int main()" style="shape=process;whiteSpace=wrap;html=1;backgroundOutline=1;" vertex="1" parent="1">
          <mxGeometry x="160" y="70" width="80" height="40" as="geometry" />
        </mxCell>
        <mxCell id="xZeH-LyGdVXV--fjbjvh-7" value="" style="endArrow=classic;html=1;rounded=0;" edge="1" parent="1">
          <mxGeometry width="50" height="50" relative="1" as="geometry">
            <mxPoint x="199.5" y="110" as="sourcePoint" />
            <mxPoint x="200" y="130" as="targetPoint" />
          </mxGeometry>
        </mxCell>
        <mxCell id="xZeH-LyGdVXV--fjbjvh-8" value="setlocale(LC_ALL, &quot;RUS&quot;);" style="rounded=0;whiteSpace=wrap;html=1;" vertex="1" parent="1">
          <mxGeometry x="145" y="130" width="110" height="40" as="geometry" />
        </mxCell>
        <mxCell id="xZeH-LyGdVXV--fjbjvh-9" value="" style="endArrow=classic;html=1;rounded=0;" edge="1" parent="1">
          <mxGeometry width="50" height="50" relative="1" as="geometry">
            <mxPoint x="199.5" y="170" as="sourcePoint" />
            <mxPoint x="200" y="190" as="targetPoint" />
          </mxGeometry>
        </mxCell>
        <mxCell id="xZeH-LyGdVXV--fjbjvh-10" value="int m[n] = {};" style="rounded=0;whiteSpace=wrap;html=1;" vertex="1" parent="1">
          <mxGeometry x="145" y="190" width="110" height="40" as="geometry" />
        </mxCell>
        <mxCell id="xZeH-LyGdVXV--fjbjvh-11" value="" style="endArrow=classic;html=1;rounded=0;" edge="1" parent="1">
          <mxGeometry width="50" height="50" relative="1" as="geometry">
            <mxPoint x="199.5" y="230" as="sourcePoint" />
            <mxPoint x="200" y="250" as="targetPoint" />
          </mxGeometry>
        </mxCell>
        <mxCell id="xZeH-LyGdVXV--fjbjvh-12" value="cout &amp;lt;&amp;lt; &quot;исходный массив &quot;;" style="shape=parallelogram;perimeter=parallelogramPerimeter;whiteSpace=wrap;html=1;fixedSize=1;" vertex="1" parent="1">
          <mxGeometry x="135" y="250" width="135" height="40" as="geometry" />
        </mxCell>
        <mxCell id="xZeH-LyGdVXV--fjbjvh-13" value="" style="endArrow=classic;html=1;rounded=0;" edge="1" parent="1" target="xZeH-LyGdVXV--fjbjvh-14">
          <mxGeometry width="50" height="50" relative="1" as="geometry">
            <mxPoint x="199.5" y="290" as="sourcePoint" />
            <mxPoint x="200" y="310" as="targetPoint" />
          </mxGeometry>
        </mxCell>
        <mxCell id="xZeH-LyGdVXV--fjbjvh-14" value="for (int i = 0; i &amp;lt; n; i++)" style="shape=hexagon;perimeter=hexagonPerimeter2;whiteSpace=wrap;html=1;fixedSize=1;" vertex="1" parent="1">
          <mxGeometry x="117.5" y="310" width="165" height="30" as="geometry" />
        </mxCell>
        <mxCell id="xZeH-LyGdVXV--fjbjvh-15" value="" style="endArrow=classic;html=1;rounded=0;" edge="1" parent="1">
          <mxGeometry width="50" height="50" relative="1" as="geometry">
            <mxPoint x="199.5" y="340" as="sourcePoint" />
            <mxPoint x="200" y="360" as="targetPoint" />
          </mxGeometry>
        </mxCell>
        <mxCell id="xZeH-LyGdVXV--fjbjvh-16" value="cin &amp;gt;&amp;gt; m[i];" style="shape=parallelogram;perimeter=parallelogramPerimeter;whiteSpace=wrap;html=1;fixedSize=1;" vertex="1" parent="1">
          <mxGeometry x="147.5" y="360" width="110" height="30" as="geometry" />
        </mxCell>
        <mxCell id="xZeH-LyGdVXV--fjbjvh-17" value="" style="endArrow=classic;html=1;rounded=0;entryX=0;entryY=0.5;entryDx=0;entryDy=0;" edge="1" parent="1" target="xZeH-LyGdVXV--fjbjvh-14">
          <mxGeometry width="50" height="50" relative="1" as="geometry">
            <mxPoint x="199.5" y="390" as="sourcePoint" />
            <mxPoint x="70" y="260" as="targetPoint" />
            <Array as="points">
              <mxPoint x="200" y="410" />
              <mxPoint x="100" y="410" />
              <mxPoint x="100" y="325" />
            </Array>
          </mxGeometry>
        </mxCell>
        <mxCell id="xZeH-LyGdVXV--fjbjvh-18" value="" style="endArrow=classic;html=1;rounded=0;" edge="1" parent="1">
          <mxGeometry width="50" height="50" relative="1" as="geometry">
            <mxPoint x="282.5" y="324.5" as="sourcePoint" />
            <mxPoint x="300" y="360" as="targetPoint" />
            <Array as="points">
              <mxPoint x="300" y="325" />
            </Array>
          </mxGeometry>
        </mxCell>
        <mxCell id="xZeH-LyGdVXV--fjbjvh-19" value="cout&amp;lt;&amp;lt;endl;" style="shape=parallelogram;perimeter=parallelogramPerimeter;whiteSpace=wrap;html=1;fixedSize=1;" vertex="1" parent="1">
          <mxGeometry x="257.5" y="360" width="110" height="30" as="geometry" />
        </mxCell>
        <mxCell id="xZeH-LyGdVXV--fjbjvh-20" value="" style="endArrow=classic;html=1;rounded=0;" edge="1" parent="1">
          <mxGeometry width="50" height="50" relative="1" as="geometry">
            <mxPoint x="300" y="390" as="sourcePoint" />
            <mxPoint x="210" y="450" as="targetPoint" />
            <Array as="points">
              <mxPoint x="300" y="430" />
              <mxPoint x="210" y="430" />
            </Array>
          </mxGeometry>
        </mxCell>
        <mxCell id="xZeH-LyGdVXV--fjbjvh-21" value="1" style="text;html=1;align=center;verticalAlign=middle;resizable=0;points=[];autosize=1;strokeColor=none;fillColor=none;" vertex="1" parent="1">
          <mxGeometry x="197.5" y="340" width="30" height="30" as="geometry" />
        </mxCell>
        <mxCell id="xZeH-LyGdVXV--fjbjvh-22" value="0" style="text;html=1;align=center;verticalAlign=middle;resizable=0;points=[];autosize=1;strokeColor=none;fillColor=none;" vertex="1" parent="1">
          <mxGeometry x="275" y="300" width="30" height="30" as="geometry" />
        </mxCell>
        <mxCell id="xZeH-LyGdVXV--fjbjvh-23" value="{" style="text;html=1;align=center;verticalAlign=middle;resizable=0;points=[];autosize=1;strokeColor=none;fillColor=none;" vertex="1" parent="1">
          <mxGeometry x="155" y="108" width="30" height="30" as="geometry" />
        </mxCell>
        <mxCell id="xZeH-LyGdVXV--fjbjvh-24" value="for (int i = 1; i &amp;lt; n; i++)" style="shape=hexagon;perimeter=hexagonPerimeter2;whiteSpace=wrap;html=1;fixedSize=1;" vertex="1" parent="1">
          <mxGeometry x="140" y="450" width="135" height="40" as="geometry" />
        </mxCell>
        <mxCell id="xZeH-LyGdVXV--fjbjvh-25" value="" style="endArrow=classic;html=1;rounded=0;" edge="1" parent="1">
          <mxGeometry width="50" height="50" relative="1" as="geometry">
            <mxPoint x="207" y="490" as="sourcePoint" />
            <mxPoint x="207" y="510" as="targetPoint" />
          </mxGeometry>
        </mxCell>
        <mxCell id="xZeH-LyGdVXV--fjbjvh-26" value="r = m[i];" style="rounded=0;whiteSpace=wrap;html=1;" vertex="1" parent="1">
          <mxGeometry x="157.5" y="510" width="100" height="30" as="geometry" />
        </mxCell>
        <mxCell id="xZeH-LyGdVXV--fjbjvh-27" value="" style="endArrow=classic;html=1;rounded=0;" edge="1" parent="1">
          <mxGeometry width="50" height="50" relative="1" as="geometry">
            <mxPoint x="207" y="540" as="sourcePoint" />
            <mxPoint x="207" y="560" as="targetPoint" />
          </mxGeometry>
        </mxCell>
        <mxCell id="xZeH-LyGdVXV--fjbjvh-29" value="j = i - 1;" style="rounded=0;whiteSpace=wrap;html=1;" vertex="1" parent="1">
          <mxGeometry x="157.5" y="559.5" width="100" height="30" as="geometry" />
        </mxCell>
        <mxCell id="xZeH-LyGdVXV--fjbjvh-30" value="" style="endArrow=classic;html=1;rounded=0;" edge="1" parent="1">
          <mxGeometry width="50" height="50" relative="1" as="geometry">
            <mxPoint x="207" y="589.5" as="sourcePoint" />
            <mxPoint x="207" y="609.5" as="targetPoint" />
          </mxGeometry>
        </mxCell>
        <mxCell id="xZeH-LyGdVXV--fjbjvh-31" value="while (j &amp;gt;= 0 &amp;amp;&amp;amp; r &amp;lt; m[j])&amp;nbsp;" style="rhombus;whiteSpace=wrap;html=1;" vertex="1" parent="1">
          <mxGeometry x="136.25" y="610" width="142.5" height="50" as="geometry" />
        </mxCell>
        <mxCell id="xZeH-LyGdVXV--fjbjvh-32" value="" style="endArrow=classic;html=1;rounded=0;" edge="1" parent="1">
          <mxGeometry width="50" height="50" relative="1" as="geometry">
            <mxPoint x="207" y="660" as="sourcePoint" />
            <mxPoint x="207" y="690" as="targetPoint" />
          </mxGeometry>
        </mxCell>
        <mxCell id="xZeH-LyGdVXV--fjbjvh-33" value="" style="endArrow=classic;html=1;rounded=0;" edge="1" parent="1">
          <mxGeometry width="50" height="50" relative="1" as="geometry">
            <mxPoint x="207" y="670" as="sourcePoint" />
            <mxPoint x="207" y="690" as="targetPoint" />
          </mxGeometry>
        </mxCell>
        <mxCell id="xZeH-LyGdVXV--fjbjvh-34" value="m[j+1] = m[j];" style="rounded=0;whiteSpace=wrap;html=1;" vertex="1" parent="1">
          <mxGeometry x="157.5" y="690" width="100" height="30" as="geometry" />
        </mxCell>
        <mxCell id="xZeH-LyGdVXV--fjbjvh-35" value="" style="endArrow=classic;html=1;rounded=0;" edge="1" parent="1">
          <mxGeometry width="50" height="50" relative="1" as="geometry">
            <mxPoint x="207" y="720" as="sourcePoint" />
            <mxPoint x="207" y="740" as="targetPoint" />
          </mxGeometry>
        </mxCell>
        <mxCell id="xZeH-LyGdVXV--fjbjvh-36" value="j--;" style="rounded=0;whiteSpace=wrap;html=1;" vertex="1" parent="1">
          <mxGeometry x="157.5" y="739.5" width="100" height="30" as="geometry" />
        </mxCell>
        <mxCell id="xZeH-LyGdVXV--fjbjvh-37" value="" style="endArrow=classic;html=1;rounded=0;entryX=0;entryY=0.5;entryDx=0;entryDy=0;" edge="1" parent="1" target="xZeH-LyGdVXV--fjbjvh-31">
          <mxGeometry width="50" height="50" relative="1" as="geometry">
            <mxPoint x="207" y="769.5" as="sourcePoint" />
            <mxPoint x="80" y="780" as="targetPoint" />
            <Array as="points">
              <mxPoint x="207" y="780" />
              <mxPoint x="120" y="780" />
              <mxPoint x="120" y="635" />
            </Array>
          </mxGeometry>
        </mxCell>
        <mxCell id="xZeH-LyGdVXV--fjbjvh-38" value="" style="endArrow=classic;html=1;rounded=0;" edge="1" parent="1" target="xZeH-LyGdVXV--fjbjvh-39">
          <mxGeometry width="50" height="50" relative="1" as="geometry">
            <mxPoint x="278.75" y="634.5" as="sourcePoint" />
            <mxPoint x="320" y="690" as="targetPoint" />
            <Array as="points">
              <mxPoint x="320" y="635" />
            </Array>
          </mxGeometry>
        </mxCell>
        <mxCell id="xZeH-LyGdVXV--fjbjvh-39" value="m[j + 1] = r;" style="rounded=0;whiteSpace=wrap;html=1;" vertex="1" parent="1">
          <mxGeometry x="270" y="679.5" width="100" height="40.5" as="geometry" />
        </mxCell>
        <mxCell id="xZeH-LyGdVXV--fjbjvh-40" value="" style="endArrow=classic;html=1;rounded=0;" edge="1" parent="1" target="xZeH-LyGdVXV--fjbjvh-41">
          <mxGeometry width="50" height="50" relative="1" as="geometry">
            <mxPoint x="319.5" y="720" as="sourcePoint" />
            <mxPoint x="210" y="820" as="targetPoint" />
            <Array as="points">
              <mxPoint x="320" y="800" />
              <mxPoint x="210" y="800" />
            </Array>
          </mxGeometry>
        </mxCell>
        <mxCell id="xZeH-LyGdVXV--fjbjvh-41" value="for (int i = 0; i &amp;lt; n; i++)" style="shape=hexagon;perimeter=hexagonPerimeter2;whiteSpace=wrap;html=1;fixedSize=1;" vertex="1" parent="1">
          <mxGeometry x="150" y="820" width="120" height="40" as="geometry" />
        </mxCell>
        <mxCell id="xZeH-LyGdVXV--fjbjvh-42" value="" style="endArrow=classic;html=1;rounded=0;" edge="1" parent="1">
          <mxGeometry width="50" height="50" relative="1" as="geometry">
            <mxPoint x="207" y="860" as="sourcePoint" />
            <mxPoint x="207.5" y="880" as="targetPoint" />
          </mxGeometry>
        </mxCell>
        <mxCell id="xZeH-LyGdVXV--fjbjvh-43" value="cout &amp;lt;&amp;lt; m[i] &amp;lt;&amp;lt; &quot; &quot;;" style="shape=parallelogram;perimeter=parallelogramPerimeter;whiteSpace=wrap;html=1;fixedSize=1;" vertex="1" parent="1">
          <mxGeometry x="140" y="880" width="125" height="30" as="geometry" />
        </mxCell>
        <mxCell id="xZeH-LyGdVXV--fjbjvh-44" value="" style="endArrow=classic;html=1;rounded=0;entryX=0;entryY=0.5;entryDx=0;entryDy=0;exitX=0.5;exitY=1;exitDx=0;exitDy=0;" edge="1" parent="1" source="xZeH-LyGdVXV--fjbjvh-43" target="xZeH-LyGdVXV--fjbjvh-41">
          <mxGeometry width="50" height="50" relative="1" as="geometry">
            <mxPoint x="209.5" y="915" as="sourcePoint" />
            <mxPoint x="128" y="850" as="targetPoint" />
            <Array as="points">
              <mxPoint x="203" y="935" />
              <mxPoint x="110" y="935" />
              <mxPoint x="110" y="840" />
            </Array>
          </mxGeometry>
        </mxCell>
        <mxCell id="xZeH-LyGdVXV--fjbjvh-45" value="" style="endArrow=classic;html=1;rounded=0;exitX=1;exitY=0.5;exitDx=0;exitDy=0;" edge="1" parent="1" source="xZeH-LyGdVXV--fjbjvh-41">
          <mxGeometry width="50" height="50" relative="1" as="geometry">
            <mxPoint x="292.5" y="840" as="sourcePoint" />
            <mxPoint x="310" y="875.5" as="targetPoint" />
            <Array as="points">
              <mxPoint x="310" y="840.5" />
            </Array>
          </mxGeometry>
        </mxCell>
        <mxCell id="xZeH-LyGdVXV--fjbjvh-46" value="cout&amp;lt;&amp;lt;endl;" style="shape=parallelogram;perimeter=parallelogramPerimeter;whiteSpace=wrap;html=1;fixedSize=1;" vertex="1" parent="1">
          <mxGeometry x="265" y="880" width="110" height="30" as="geometry" />
        </mxCell>
        <mxCell id="xZeH-LyGdVXV--fjbjvh-47" value="" style="endArrow=classic;html=1;rounded=0;entryX=0;entryY=0.5;entryDx=0;entryDy=0;" edge="1" parent="1" target="xZeH-LyGdVXV--fjbjvh-24">
          <mxGeometry width="50" height="50" relative="1" as="geometry">
            <mxPoint x="307.5" y="910" as="sourcePoint" />
            <mxPoint x="217.5" y="970" as="targetPoint" />
            <Array as="points">
              <mxPoint x="307.5" y="950" />
              <mxPoint x="217.5" y="950" />
              <mxPoint x="90" y="950" />
              <mxPoint x="90" y="470" />
            </Array>
          </mxGeometry>
        </mxCell>
        <mxCell id="xZeH-LyGdVXV--fjbjvh-48" value="1" style="text;html=1;align=center;verticalAlign=middle;resizable=0;points=[];autosize=1;strokeColor=none;fillColor=none;" vertex="1" parent="1">
          <mxGeometry x="205" y="860" width="30" height="30" as="geometry" />
        </mxCell>
        <mxCell id="xZeH-LyGdVXV--fjbjvh-49" value="" style="endArrow=classic;html=1;rounded=0;exitX=1;exitY=0.5;exitDx=0;exitDy=0;" edge="1" parent="1" source="xZeH-LyGdVXV--fjbjvh-24">
          <mxGeometry width="50" height="50" relative="1" as="geometry">
            <mxPoint x="390" y="550" as="sourcePoint" />
            <mxPoint x="200" y="1000" as="targetPoint" />
            <Array as="points">
              <mxPoint x="380" y="470" />
              <mxPoint x="380" y="980" />
              <mxPoint x="200" y="980" />
            </Array>
          </mxGeometry>
        </mxCell>
        <mxCell id="xZeH-LyGdVXV--fjbjvh-50" value="cout &amp;lt;&amp;lt; &quot;отсортированный массив &quot;;" style="shape=parallelogram;perimeter=parallelogramPerimeter;whiteSpace=wrap;html=1;fixedSize=1;" vertex="1" parent="1">
          <mxGeometry x="143.75" y="1000" width="127.5" height="40" as="geometry" />
        </mxCell>
        <mxCell id="xZeH-LyGdVXV--fjbjvh-51" value="" style="endArrow=classic;html=1;rounded=0;" edge="1" parent="1">
          <mxGeometry width="50" height="50" relative="1" as="geometry">
            <mxPoint x="206.97000000000003" y="1040" as="sourcePoint" />
            <mxPoint x="206.5" y="1060" as="targetPoint" />
          </mxGeometry>
        </mxCell>
        <mxCell id="xZeH-LyGdVXV--fjbjvh-52" value="for (int i = 0; i &amp;lt; n; i++)" style="shape=hexagon;perimeter=hexagonPerimeter2;whiteSpace=wrap;html=1;fixedSize=1;" vertex="1" parent="1">
          <mxGeometry x="115" y="1060" width="165" height="30" as="geometry" />
        </mxCell>
        <mxCell id="xZeH-LyGdVXV--fjbjvh-53" value="" style="endArrow=classic;html=1;rounded=0;" edge="1" parent="1">
          <mxGeometry width="50" height="50" relative="1" as="geometry">
            <mxPoint x="197" y="1090" as="sourcePoint" />
            <mxPoint x="197.5" y="1110" as="targetPoint" />
          </mxGeometry>
        </mxCell>
        <mxCell id="xZeH-LyGdVXV--fjbjvh-54" value="cout &amp;lt;&amp;lt; m[i] &amp;lt;&amp;lt; &quot; &quot;;" style="shape=parallelogram;perimeter=parallelogramPerimeter;whiteSpace=wrap;html=1;fixedSize=1;" vertex="1" parent="1">
          <mxGeometry x="133.75" y="1110" width="132.5" height="30" as="geometry" />
        </mxCell>
        <mxCell id="xZeH-LyGdVXV--fjbjvh-55" value="" style="endArrow=classic;html=1;rounded=0;entryX=0;entryY=0.5;entryDx=0;entryDy=0;" edge="1" parent="1" target="xZeH-LyGdVXV--fjbjvh-52">
          <mxGeometry width="50" height="50" relative="1" as="geometry">
            <mxPoint x="197" y="1140" as="sourcePoint" />
            <mxPoint x="67.5" y="1010" as="targetPoint" />
            <Array as="points">
              <mxPoint x="197.5" y="1160" />
              <mxPoint x="97.5" y="1160" />
              <mxPoint x="97.5" y="1075" />
            </Array>
          </mxGeometry>
        </mxCell>
        <mxCell id="xZeH-LyGdVXV--fjbjvh-56" value="" style="endArrow=classic;html=1;rounded=0;" edge="1" parent="1">
          <mxGeometry width="50" height="50" relative="1" as="geometry">
            <mxPoint x="280" y="1074.5" as="sourcePoint" />
            <mxPoint x="197.5" y="1190" as="targetPoint" />
            <Array as="points">
              <mxPoint x="297.5" y="1075" />
              <mxPoint x="297.5" y="1170" />
              <mxPoint x="197.5" y="1170" />
            </Array>
          </mxGeometry>
        </mxCell>
        <mxCell id="xZeH-LyGdVXV--fjbjvh-57" value="return 0;" style="ellipse;whiteSpace=wrap;html=1;" vertex="1" parent="1">
          <mxGeometry x="137.5" y="1190" width="120" height="30" as="geometry" />
        </mxCell>
        <mxCell id="xZeH-LyGdVXV--fjbjvh-58" value="1" style="text;html=1;align=center;verticalAlign=middle;resizable=0;points=[];autosize=1;strokeColor=none;fillColor=none;" vertex="1" parent="1">
          <mxGeometry x="195" y="1080" width="30" height="30" as="geometry" />
        </mxCell>
        <mxCell id="xZeH-LyGdVXV--fjbjvh-59" value="0" style="text;html=1;align=center;verticalAlign=middle;resizable=0;points=[];autosize=1;strokeColor=none;fillColor=none;" vertex="1" parent="1">
          <mxGeometry x="272.5" y="1050" width="30" height="30" as="geometry" />
        </mxCell>
        <mxCell id="xZeH-LyGdVXV--fjbjvh-60" value="}" style="text;html=1;align=center;verticalAlign=middle;resizable=0;points=[];autosize=1;strokeColor=none;fillColor=none;" vertex="1" parent="1">
          <mxGeometry x="222.5" y="1210" width="30" height="30" as="geometry" />
        </mxCell>
      </root>
    </mxGraphModel>
  </diagram>
</mxfile>
